# xmcd CD database file
#
# Track frame offsets:
#	150
#	18461
#	37564
#	54032
#	69431
#	85026
#	99135
#	115148
#	132105
#	152569
#	165939
#	182227
#	202849
#	219677
#
# Disc length: 3141 seconds
#
# Revision: 0
# Processed by: cddbd v1.5.2PL0 Copyright (c) Steve Scherf et al.
# Submitted via: CDex 1.51
#
DISCID=9c0c430e
DTITLE=Connie Evingson - David Frishberg - Little Did I Dream
DYEAR=2008
DGENRE=Jazz
TTITLE0=Little Did I Dream
TTITLE1=Peel Me a Grape
TTITLE2=Our Love ROlls On
TTITLE3=Zanzibar
TTITLE4=Can't Take You Nowhere
TTITLE5=Heart's Desire
TTITLE6=Wheelers and Dealers
TTITLE7=Zoot Walks In
TTITLE8=Eastwood Lake
TTITLE9=You Are There
TTITLE10=I Want a Sideman
TTITLE11=My Attorney Bernie
TTITLE12=Snowbound
TTITLE13=Listen Here
EXTD=YEAR: 2008
EXTT0=
EXTT1=
EXTT2=
EXTT3=
EXTT4=
EXTT5=
EXTT6=
EXTT7=
EXTT8=
EXTT9=
EXTT10=
EXTT11=
EXTT12=
EXTT13=
PLAYORDER=
